<?xml version="1.0" encoding="UTF-8"?>
<svg width="106px" height="24px" viewBox="0 0 106 24" version="1.1" xmlns="http://www.w3.org/2000/svg" xmlns:xlink="http://www.w3.org/1999/xlink">
    <!-- Generator: Sketch 59.1 (86144) - https://sketch.com -->
    <title>编组</title>
    <desc>Created with Sketch.</desc>
    <defs>
        <polygon id="path-1" points="0.784741935 0.570177419 4.346 0.570177419 4.346 8.26304194 0.784741935 8.26304194"></polygon>
        <polygon id="path-3" points="0 23.9354839 105.302452 23.9354839 105.302452 0.570177419 0 0.570177419"></polygon>
    </defs>
    <g id="主页" stroke="none" stroke-width="1" fill="none" fill-rule="evenodd">
        <g id="ddxf" transform="translate(-27.000000, -18.000000)">
            <g id="编组" transform="translate(27.000000, 17.500000)">
                <g opacity="0.5" transform="translate(0.000000, 0.285089)">
                    <path d="M6.20929194,4.60228065 C6.20929194,3.26787742 5.14587258,2.18479677 3.81146935,2.18479677 C2.47792097,2.18479677 1.42390484,3.26787742 1.42390484,4.60228065 C1.42390484,5.93668387 2.47792097,7.01976452 3.81146935,7.01976452 C5.14587258,7.01976452 6.20929194,5.93668387 6.20929194,4.60228065 M0.0698403226,4.60228065 C0.0698403226,2.52587742 1.7256629,0.840990323 3.81146935,0.840990323 C5.89813065,0.840990323 7.56335645,2.52587742 7.56335645,4.60228065 C7.56335645,6.6880871 5.89813065,8.36357097 3.81146935,8.36357097 C1.7256629,8.36357097 0.0698403226,6.6880871 0.0698403226,4.60228065" id="Fill-1" fill="#1787EB"></path>
                    <path d="M8.06249677,2.39542903 L9.40630323,2.39542903 L9.40630323,3.11776774 C9.79696452,2.60571935 10.398771,2.27489677 11.1612871,2.27489677 C12.6367387,2.27489677 13.4890129,3.18786452 13.4890129,4.78213871 L13.4890129,8.26304194 L12.1144323,8.26304194 L12.1144323,4.9231871 C12.1144323,4.01021935 11.6733355,3.44859032 10.7902871,3.44859032 C10.0183677,3.44859032 9.41656129,4.01021935 9.41656129,5.04371935 L9.41656129,8.26304194 L8.06249677,8.26304194 L8.06249677,2.39542903 Z" id="Fill-3" fill="#1787EB"></path>
                    <g transform="translate(12.822581, 0.000000)">
                        <mask id="mask-2" fill="white">
                            <use xlink:href="#path-1"></use>
                        </mask>
                        <g id="Clip-6"></g>
                        <path d="M0.784741935,2.39542903 L1.78832258,2.39542903 L1.78832258,1.50297742 L3.15264516,0.569493548 L3.15264516,2.39542903 L4.346,2.39542903 L4.346,3.6093 L3.15264516,3.6093 L3.15264516,5.80538065 C3.15264516,6.82947742 3.30224194,6.98933226 4.346,6.98933226 L4.346,8.26304194 L4.15537097,8.26304194 C2.33969355,8.26304194 1.78832258,7.68175161 1.78832258,5.81563871 L1.78832258,3.6093 L0.784741935,3.6093 L0.784741935,2.39542903 Z" id="Fill-5" fill="#1787EB" mask="url(#mask-2)"></path>
                    </g>
                    <path d="M21.9720048,5.33436452 C21.9720048,4.34104194 21.2300048,3.54860645 20.2666016,3.54860645 C19.2937952,3.54860645 18.5611984,4.34104194 18.5611984,5.33436452 C18.5611984,6.30717097 19.2937952,7.10986452 20.2666016,7.10986452 C21.2300048,7.10986452 21.9720048,6.30717097 21.9720048,5.33436452 M17.2267952,5.33436452 C17.2267952,3.61955806 18.5706016,2.27489677 20.2666016,2.27489677 C21.9523435,2.27489677 23.3064081,3.61955806 23.3064081,5.33436452 C23.3064081,7.01925161 21.9523435,8.38357419 20.2666016,8.38357419 C18.5706016,8.38357419 17.2267952,7.01925161 17.2267952,5.33436452" id="Fill-7" fill="#1787EB"></path>
                    <polygon id="Fill-9" fill="#1787EB" points="23.696129 8.26287097 25.0604516 8.26287097 25.0604516 0.840306452 23.696129 0.840306452"></polygon>
                    <path d="M30.1948694,5.33436452 C30.1948694,4.34104194 29.4528694,3.54860645 28.4894661,3.54860645 C27.5166597,3.54860645 26.7840629,4.34104194 26.7840629,5.33436452 C26.7840629,6.30717097 27.5166597,7.10986452 28.4894661,7.10986452 C29.4528694,7.10986452 30.1948694,6.30717097 30.1948694,5.33436452 M25.4496597,5.33436452 C25.4496597,3.61955806 26.7934661,2.27489677 28.4894661,2.27489677 C30.1752081,2.27489677 31.5292726,3.61955806 31.5292726,5.33436452 C31.5292726,7.01925161 30.1752081,8.38357419 28.4894661,8.38357419 C26.7934661,8.38357419 25.4496597,7.01925161 25.4496597,5.33436452" id="Fill-11" fill="#1787EB"></path>
                    <path d="M36.6428323,5.31436129 C36.6428323,4.31163548 35.9008323,3.50894194 34.8869935,3.50894194 C33.8842677,3.50894194 33.1114935,4.30137742 33.1114935,5.31436129 C33.1114935,6.33760323 33.8842677,7.13944194 34.8869935,7.13944194 C35.9008323,7.13944194 36.6428323,6.32734516 36.6428323,5.31436129 L36.6428323,5.31436129 Z M36.5829935,7.48137742 C36.1513,8.04215161 35.4588806,8.38323226 34.6664452,8.38323226 C33.2525419,8.38323226 31.7779452,7.25997419 31.7779452,5.33402258 C31.7779452,3.38840968 33.2029613,2.27455484 34.6869613,2.27455484 C35.4588806,2.27455484 36.1410419,2.61563548 36.5727355,3.14734516 L36.5727355,2.3950871 L37.9268,2.3950871 L37.9268,8.11310323 C37.9268,9.7578129 36.8736387,11.1024742 34.8972516,11.1024742 C33.3730742,11.1024742 32.419929,10.3895387 31.8882194,9.41673226 L33.0918323,8.68413548 C33.5235258,9.47742581 33.9851387,9.85782903 34.9169129,9.85782903 C35.9410097,9.85782903 36.5829935,9.05513548 36.5829935,8.16353871 L36.5829935,7.48137742 Z" id="Fill-13" fill="#1787EB"></path>
                    <polygon id="Fill-15" fill="#1787EB" points="40.5422645 7.97239677 38.1350387 2.39542903 39.5788613 2.39542903 41.2141677 6.34734839 42.7588613 2.39542903 44.1838774 2.39542903 40.6824581 10.971171 39.3087323 10.971171"></polygon>
                </g>
                <path d="M2.6081129,14.1997258 L0,21.5222742 L1.42416129,21.5222742 L1.87551613,20.2186452 L4.71443548,20.2186452 L5.16579032,21.5222742 L6.58995161,21.5222742 L3.98183871,14.1997258 L2.6081129,14.1997258 Z M3.29967742,16.1359355 L4.26308065,18.9141613 L2.33712903,18.9141613 L3.29967742,16.1359355 Z" id="Fill-17" fill="#1787EB"></path>
                <g transform="translate(0.000000, 0.285089)">
                    <path d="M11.6839355,18.2884194 C11.6839355,17.2754355 10.9120161,16.483 9.91869355,16.483 C8.90570968,16.483 8.17396774,17.2856935 8.17396774,18.2884194 C8.17396774,19.3014032 8.90570968,20.1143548 9.91869355,20.1143548 C10.9120161,20.1143548 11.6839355,19.3116613 11.6839355,18.2884194 M8.22354839,20.5451935 L8.22354839,23.9354839 L6.87974194,23.9354839 L6.87974194,15.3691452 L8.22354839,15.3691452 L8.22354839,16.1513226 C8.63472581,15.5999516 9.32629032,15.2486129 10.1298387,15.2486129 C11.6035806,15.2486129 13.0183387,16.3624677 13.0183387,18.3080806 C13.0183387,20.2340323 11.554,21.3572903 10.1392419,21.3572903 C9.33654839,21.3572903 8.63472581,21.0666452 8.22354839,20.5451935" id="Fill-18" fill="#1787EB"></path>
                    <path d="M18.1819919,18.2884194 C18.1819919,17.2754355 17.4100726,16.483 16.41675,16.483 C15.4037661,16.483 14.6720242,17.2856935 14.6720242,18.2884194 C14.6720242,19.3014032 15.4037661,20.1143548 16.41675,20.1143548 C17.4100726,20.1143548 18.1819919,19.3116613 18.1819919,18.2884194 M14.7216048,20.5451935 L14.7216048,23.9354839 L13.3777984,23.9354839 L13.3777984,15.3691452 L14.7216048,15.3691452 L14.7216048,16.1513226 C15.1327823,15.5999516 15.8243468,15.2486129 16.6278952,15.2486129 C18.1016371,15.2486129 19.5163952,16.3624677 19.5163952,18.3080806 C19.5163952,20.2340323 18.0520565,21.3572903 16.6372984,21.3572903 C15.8346048,21.3572903 15.1327823,21.0666452 14.7216048,20.5451935" id="Fill-20" fill="#1787EB"></path>
                    <mask id="mask-4" fill="white">
                        <use xlink:href="#path-3"></use>
                    </mask>
                    <g id="Clip-23"></g>
                    <polygon id="Fill-22" fill="#1787EB" mask="url(#mask-4)" points="19.8758548 21.2376129 21.2401774 21.2376129 21.2401774 13.8150484 19.8758548 13.8150484"></polygon>
                    <path d="M21.8710484,21.2367581 L23.235371,21.2367581 L23.235371,15.3691452 L21.8710484,15.3691452 L21.8710484,21.2367581 Z M22.5532097,13.0824516 C23.0840645,13.0824516 23.4054839,13.4235323 23.4054839,13.9347258 C23.4054839,14.4467742 23.0840645,14.7775968 22.5532097,14.7775968 C22.0009839,14.7775968 21.7000806,14.4467742 21.7000806,13.9347258 C21.7000806,13.4235323 22.0309032,13.0824516 22.5532097,13.0824516 L22.5532097,13.0824516 Z" id="Fill-24" fill="#1787EB" mask="url(#mask-4)"></path>
                    <path d="M23.624921,18.3085081 C23.624921,16.5937016 24.9593242,15.2490403 26.6741306,15.2490403 C27.9880177,15.2490403 29.0215177,16.0012984 29.4728726,17.0647177 L28.2598565,17.5767661 C27.9880177,16.9347823 27.4067274,16.52275 26.6843887,16.52275 C25.691921,16.52275 24.9490661,17.3151855 24.9490661,18.3085081 C24.9490661,19.2813145 25.691921,20.0840081 26.6946468,20.0840081 C27.4563081,20.0840081 28.0085339,19.6326532 28.2795177,18.9906694 L29.4925339,19.512121 C29.0317758,20.5952016 28.0384532,21.3577177 26.6741306,21.3577177 C24.9593242,21.3577177 23.624921,19.9933952 23.624921,18.3085081" id="Fill-25" fill="#1787EB" mask="url(#mask-4)"></path>
                    <path d="M34.4264919,18.2884194 C34.4264919,17.2856935 33.6844919,16.483 32.6706532,16.483 C31.6679274,16.483 30.8951532,17.2754355 30.8951532,18.2884194 C30.8951532,19.3116613 31.6679274,20.1143548 32.6706532,20.1143548 C33.6844919,20.1143548 34.4264919,19.3014032 34.4264919,18.2884194 M29.5616048,18.3080806 C29.5616048,16.3624677 30.986621,15.2486129 32.470621,15.2486129 C33.2425403,15.2486129 33.9247016,15.5597742 34.3563952,16.0718226 L34.3563952,15.3691452 L35.7104597,15.3691452 L35.7104597,21.2376129 L34.3563952,21.2376129 L34.3563952,20.4750968 C33.9247016,21.0264677 33.222879,21.3572903 32.4501048,21.3572903 C31.0362016,21.3572903 29.5616048,20.2340323 29.5616048,18.3080806" id="Fill-26" fill="#1787EB" mask="url(#mask-4)"></path>
                    <path d="M36.069321,15.3695726 L37.0729016,15.3695726 L37.0729016,14.477121 L38.4372242,13.5436371 L38.4372242,15.3695726 L39.630579,15.3695726 L39.630579,16.5825887 L38.4372242,16.5825887 L38.4372242,18.7795242 C38.4372242,19.803621 38.586821,19.9634758 39.630579,19.9634758 L39.630579,21.2371855 L39.43995,21.2371855 C37.6242726,21.2371855 37.0729016,20.6558952 37.0729016,18.7897823 L37.0729016,16.5825887 L36.069321,16.5825887 L36.069321,15.3695726 Z" id="Fill-27" fill="#1787EB" mask="url(#mask-4)"></path>
                    <path d="M40.0808226,21.2367581 L41.4451452,21.2367581 L41.4451452,15.3691452 L40.0808226,15.3691452 L40.0808226,21.2367581 Z M40.7629839,13.0824516 C41.2946935,13.0824516 41.6152581,13.4235323 41.6152581,13.9347258 C41.6152581,14.4467742 41.2946935,14.7775968 40.7629839,14.7775968 C40.2107581,14.7775968 39.9098548,14.4467742 39.9098548,13.9347258 C39.9098548,13.4235323 40.2406774,13.0824516 40.7629839,13.0824516 L40.7629839,13.0824516 Z" id="Fill-28" fill="#1787EB" mask="url(#mask-4)"></path>
                    <path d="M46.5803323,18.3085081 C46.5803323,17.3151855 45.8383323,16.52275 44.874929,16.52275 C43.9021226,16.52275 43.1695258,17.3151855 43.1695258,18.3085081 C43.1695258,19.2813145 43.9021226,20.0840081 44.874929,20.0840081 C45.8383323,20.0840081 46.5803323,19.2813145 46.5803323,18.3085081 M41.8351226,18.3085081 C41.8351226,16.5937016 43.178929,15.2490403 44.874929,15.2490403 C46.560671,15.2490403 47.9147355,16.5937016 47.9147355,18.3085081 C47.9147355,19.9933952 46.560671,21.3577177 44.874929,21.3577177 C43.178929,21.3577177 41.8351226,19.9933952 41.8351226,18.3085081" id="Fill-29" fill="#1787EB" mask="url(#mask-4)"></path>
                    <path d="M48.3034306,15.3695726 L49.6472371,15.3695726 L49.6472371,16.0919113 C50.0378984,15.5798629 50.6397048,15.2490403 51.402221,15.2490403 C52.8776726,15.2490403 53.7299468,16.1620081 53.7299468,17.7562823 L53.7299468,21.2371855 L52.3553661,21.2371855 L52.3553661,17.8973306 C52.3553661,16.9843629 51.9142694,16.4227339 51.031221,16.4227339 C50.2593016,16.4227339 49.6574952,16.9843629 49.6574952,18.0178629 L49.6574952,21.2371855 L48.3034306,21.2371855 L48.3034306,15.3695726 Z" id="Fill-30" fill="#1787EB" mask="url(#mask-4)"></path>
                    <path d="M57.9603726,15.1787726 L57.9603726,19.9735629 L58.4920823,19.9735629 C60.0966145,19.9735629 61.1001952,18.9400629 61.1001952,17.5765952 C61.1001952,16.1720952 60.2470661,15.1787726 58.4322435,15.1787726 L57.9603726,15.1787726 Z M56.59605,13.9144661 L58.5920984,13.9144661 C61.0600177,13.9144661 62.4645177,15.4993371 62.4645177,17.5765952 C62.4645177,19.6624016 60.8787919,21.2370145 58.6527919,21.2370145 L56.59605,21.2370145 L56.59605,13.9144661 Z" id="Fill-31" fill="#1787EB" mask="url(#mask-4)"></path>
                    <path d="M64.0361387,17.646521 L67.3665903,17.646521 C67.1657032,16.8540855 66.5638968,16.4429081 65.7218806,16.4429081 C64.908929,16.4429081 64.2772032,16.9241823 64.0361387,17.646521 M62.6718161,18.3184242 C62.6718161,16.6036177 64.0062194,15.2486984 65.7218806,15.2486984 C67.4674613,15.2486984 68.741171,16.5326661 68.741171,18.2688435 L68.741171,18.7800371 L63.9660419,18.7800371 C64.1575258,19.61265 64.8089129,20.164021 65.7714613,20.164021 C66.5339774,20.164021 67.1161226,19.7631016 67.3973645,19.130521 L68.5095097,19.7725048 C67.999171,20.72565 67.0956065,21.3573758 65.7714613,21.3573758 C63.9258645,21.3573758 62.6718161,20.0135694 62.6718161,18.3184242" id="Fill-32" fill="#1787EB" mask="url(#mask-4)"></path>
                    <polygon id="Fill-33" fill="#1787EB" mask="url(#mask-4)" points="68.4388145 15.3695726 69.8527177 15.3695726 71.3683468 19.5018629 72.8523468 15.3695726 74.2465887 15.3695726 72.04025 21.2371855 70.6759274 21.2371855"></polygon>
                    <path d="M75.2675226,17.646521 L78.5979742,17.646521 C78.3970871,16.8540855 77.7952806,16.4429081 76.9532645,16.4429081 C76.1403129,16.4429081 75.5085871,16.9241823 75.2675226,17.646521 M73.9032,18.3184242 C73.9032,16.6036177 75.2376032,15.2486984 76.9532645,15.2486984 C78.6988452,15.2486984 79.9725548,16.5326661 79.9725548,18.2688435 L79.9725548,18.7800371 L75.1974258,18.7800371 C75.3889097,19.61265 76.0402968,20.164021 77.0028452,20.164021 C77.7653613,20.164021 78.3475065,19.7631016 78.6287484,19.130521 L79.7408935,19.7725048 C79.2305548,20.72565 78.3269903,21.3573758 77.0028452,21.3573758 C75.1572484,21.3573758 73.9032,20.0135694 73.9032,18.3184242" id="Fill-34" fill="#1787EB" mask="url(#mask-4)"></path>
                    <polygon id="Fill-35" fill="#1787EB" mask="url(#mask-4)" points="80.3727903 21.2376129 81.7371129 21.2376129 81.7371129 13.8150484 80.3727903 13.8150484"></polygon>
                    <path d="M86.8712742,18.3085081 C86.8712742,17.3151855 86.1292742,16.52275 85.165871,16.52275 C84.1930645,16.52275 83.4604677,17.3151855 83.4604677,18.3085081 C83.4604677,19.2813145 84.1930645,20.0840081 85.165871,20.0840081 C86.1292742,20.0840081 86.8712742,19.2813145 86.8712742,18.3085081 M82.1260645,18.3085081 C82.1260645,16.5937016 83.469871,15.2490403 85.165871,15.2490403 C86.8516129,15.2490403 88.2056774,16.5937016 88.2056774,18.3085081 C88.2056774,19.9933952 86.8516129,21.3577177 85.165871,21.3577177 C83.469871,21.3577177 82.1260645,19.9933952 82.1260645,18.3085081" id="Fill-36" fill="#1787EB" mask="url(#mask-4)"></path>
                    <path d="M93.3986516,18.2884194 C93.3986516,17.2754355 92.6267323,16.483 91.6334097,16.483 C90.6204258,16.483 89.8886839,17.2856935 89.8886839,18.2884194 C89.8886839,19.3014032 90.6204258,20.1143548 91.6334097,20.1143548 C92.6267323,20.1143548 93.3986516,19.3116613 93.3986516,18.2884194 M89.9382645,20.5451935 L89.9382645,23.9354839 L88.5944581,23.9354839 L88.5944581,15.3691452 L89.9382645,15.3691452 L89.9382645,16.1513226 C90.3494419,15.5999516 91.0410065,15.2486129 91.8445548,15.2486129 C93.3182968,15.2486129 94.7330548,16.3624677 94.7330548,18.3080806 C94.7330548,20.2340323 93.2687161,21.3572903 91.8539581,21.3572903 C91.0512645,21.3572903 90.3494419,21.0666452 89.9382645,20.5451935" id="Fill-37" fill="#1787EB" mask="url(#mask-4)"></path>
                    <path d="M96.3154468,17.646521 L99.6458984,17.646521 C99.4450113,16.8540855 98.8432048,16.4429081 98.0011887,16.4429081 C97.1882371,16.4429081 96.5565113,16.9241823 96.3154468,17.646521 M94.9511242,18.3184242 C94.9511242,16.6036177 96.2855274,15.2486984 98.0011887,15.2486984 C99.7467694,15.2486984 101.020479,16.5326661 101.020479,18.2688435 L101.020479,18.7800371 L96.24535,18.7800371 C96.4368339,19.61265 97.088221,20.164021 98.0507694,20.164021 C98.8132855,20.164021 99.3954306,19.7631016 99.6766726,19.130521 L100.788818,19.7725048 C100.278479,20.72565 99.3749145,21.3573758 98.0507694,21.3573758 C96.2051726,21.3573758 94.9511242,20.0135694 94.9511242,18.3184242" id="Fill-38" fill="#1787EB" mask="url(#mask-4)"></path>
                    <path d="M101.420287,15.3695726 L102.764094,15.3695726 L102.764094,16.2423629 C103.035077,15.6602177 103.536868,15.3695726 104.26861,15.3695726 C104.700303,15.3695726 105.031126,15.4695887 105.30211,15.6200403 L104.790061,16.9040081 C104.590029,16.7740726 104.368626,16.6732016 103.977965,16.6732016 C103.184674,16.6732016 102.774352,17.0946371 102.774352,18.107621 L102.774352,21.2371855 L101.420287,21.2371855 L101.420287,15.3695726 Z" id="Fill-39" fill="#1787EB" mask="url(#mask-4)"></path>
                </g>
            </g>
        </g>
    </g>
</svg>